<svg width="128" height="128" viewBox="0 0 128 128" fill="none" xmlns="http://www.w3.org/2000/svg">
<path d="M127.1 0H0V127.1H127.1V0Z" fill="black"/>
<path d="M22.22 99.18V45.18H32.3V50.06H33.76C34.68 48.49 36.12 47.09 38.07 45.87C40.02 44.65 42.81 44.04 46.44 44.04C49.69 44.04 52.7 44.84 55.46 46.44C58.22 48.04 60.45 50.38 62.13 53.47C63.81 56.56 64.65 60.3 64.65 64.69V65.99C64.65 70.38 63.81 74.12 62.13 77.21C60.45 80.3 58.23 82.65 55.46 84.24C52.7 85.84 49.69 86.64 46.44 86.64C44 86.64 41.95 86.36 40.3 85.79C38.65 85.22 37.32 84.49 36.32 83.6C35.32 82.7 34.52 81.8 33.92 80.88H32.46V99.19H22.22V99.18ZM43.35 77.7C46.55 77.7 49.19 76.68 51.28 74.65C53.37 72.62 54.41 69.65 54.41 65.75V64.94C54.41 61.04 53.35 58.07 51.24 56.04C49.13 54.01 46.5 52.99 43.35 52.99C40.21 52.99 37.58 54.01 35.46 56.04C33.35 58.07 32.29 61.04 32.29 64.94V65.75C32.29 69.65 33.35 72.62 35.46 74.65C37.58 76.68 40.21 77.7 43.35 77.7Z" fill="white"/>
<path d="M72.17 85.5V29.82H82.41V60.05H83.87L97.2 45.17H110.53L91.91 64.68L111.18 85.49H98.01L83.86 69.48H82.4V85.49H72.17V85.5Z" fill="white"/>
</svg>
