<svg width="1234" height="570" viewBox="0 0 1234 570" fill="none" xmlns="http://www.w3.org/2000/svg">
<g clip-path="url(#clip0_842_1123)">
<rect width="1234" height="570" fill="white"/>
<g filter="url(#filter0_d_842_1123)">
<rect x="34" y="19" width="1167" height="531" rx="20" fill="black"/>
</g>
<path d="M460.87 361.92L463.17 352.82H466.41L462.55 367H459.29L456.27 357.6L453.23 367H449.91L446.05 352.82H449.41L451.75 361.9L454.69 352.82H457.93L460.87 361.92ZM478.151 367H469.151V352.82H478.131V355.8H472.311V358.5H477.591V361.28H472.311V364H478.151V367ZM491.091 367H481.811V352.82H484.971V363.98H491.091V367ZM502.72 367L498.9 361.42L497.3 363.2V367H494.14V352.82H497.3V358.78L502.48 352.82H506.64L501.12 358.96L506.66 367H502.72ZM512.062 356.72C511.248 357.453 510.842 358.513 510.842 359.9C510.842 361.287 511.248 362.347 512.062 363.08C512.888 363.813 513.848 364.18 514.942 364.18C516.035 364.18 516.988 363.813 517.802 363.08C518.615 362.347 519.022 361.287 519.022 359.9C519.022 358.513 518.615 357.453 517.802 356.72C516.988 355.973 516.035 355.6 514.942 355.6C513.848 355.6 512.888 355.973 512.062 356.72ZM507.562 359.92C507.562 357.72 508.275 355.94 509.702 354.58C511.142 353.207 512.888 352.52 514.942 352.52C516.995 352.52 518.735 353.207 520.162 354.58C521.588 355.953 522.302 357.733 522.302 359.92C522.302 362.107 521.588 363.887 520.162 365.26C518.735 366.62 516.995 367.3 514.942 367.3C512.888 367.3 511.142 366.62 509.702 365.26C508.275 363.887 507.562 362.107 507.562 359.92ZM541.614 367H538.514V357.6L534.814 367H532.254L528.554 357.72V367H525.554V352.82H529.674L533.574 362.4L537.274 352.82H541.614V367ZM555.296 356.72C554.483 357.453 554.076 358.513 554.076 359.9C554.076 361.287 554.483 362.347 555.296 363.08C556.123 363.813 557.083 364.18 558.176 364.18C559.27 364.18 560.223 363.813 561.036 363.08C561.85 362.347 562.256 361.287 562.256 359.9C562.256 358.513 561.85 357.453 561.036 356.72C560.223 355.973 559.27 355.6 558.176 355.6C557.083 355.6 556.123 355.973 555.296 356.72ZM550.796 359.92C550.796 357.72 551.51 355.94 552.936 354.58C554.376 353.207 556.123 352.52 558.176 352.52C560.23 352.52 561.97 353.207 563.396 354.58C564.823 355.953 565.536 357.733 565.536 359.92C565.536 362.107 564.823 363.887 563.396 365.26C561.97 366.62 560.23 367.3 558.176 367.3C556.123 367.3 554.376 366.62 552.936 365.26C551.51 363.887 550.796 362.107 550.796 359.92ZM571.968 359.18H573.808C574.408 359.18 574.895 359.02 575.268 358.7C575.641 358.367 575.828 357.927 575.828 357.38C575.828 356.82 575.641 356.38 575.268 356.06C574.908 355.727 574.421 355.56 573.808 355.56H571.968V359.18ZM574.128 361.9H571.948V367H568.788V352.82H574.128C575.568 352.82 576.735 353.247 577.628 354.1C578.535 354.953 578.988 356.04 578.988 357.36C578.988 358.707 578.535 359.8 577.628 360.64C576.735 361.48 575.568 361.9 574.128 361.9ZM591.136 364.02H592.976C594.136 364.02 595.082 363.673 595.816 362.98C596.562 362.287 596.936 361.267 596.936 359.92C596.936 358.56 596.562 357.533 595.816 356.84C595.082 356.147 594.136 355.8 592.976 355.8H591.136V364.02ZM593.096 367H587.976V352.82H593.116C595.262 352.82 596.982 353.46 598.276 354.74C599.582 356.02 600.236 357.747 600.236 359.92C600.236 362.093 599.582 363.82 598.276 365.1C596.982 366.367 595.256 367 593.096 367ZM612.487 367H603.487V352.82H612.467V355.8H606.647V358.5H611.927V361.28H606.647V364H612.487V367ZM625.249 359.18H627.089C627.689 359.18 628.176 359.02 628.549 358.7C628.923 358.367 629.109 357.927 629.109 357.38C629.109 356.82 628.923 356.38 628.549 356.06C628.189 355.727 627.703 355.56 627.089 355.56H625.249V359.18ZM627.409 361.9H625.229V367H622.069V352.82H627.409C628.849 352.82 630.016 353.247 630.909 354.1C631.816 354.953 632.269 356.04 632.269 357.36C632.269 358.707 631.816 359.8 630.909 360.64C630.016 361.48 628.849 361.9 627.409 361.9ZM643.722 367L642.702 364.12H637.222L636.202 367H632.882L638.222 352.82H641.882L647.162 367H643.722ZM640.002 356.34L638.262 361.24H641.702L640.002 356.34ZM662.228 367H659.668L659.468 365.56C659.121 366.053 658.608 366.467 657.928 366.8C657.248 367.133 656.435 367.3 655.488 367.3C653.461 367.3 651.755 366.62 650.368 365.26C648.995 363.887 648.308 362.107 648.308 359.92C648.308 357.747 649.021 355.973 650.448 354.6C651.888 353.213 653.635 352.52 655.688 352.52C657.528 352.52 658.988 352.953 660.068 353.82C661.148 354.687 661.875 355.713 662.248 356.9L659.208 357.96C659.061 357.36 658.695 356.8 658.108 356.28C657.535 355.747 656.728 355.48 655.688 355.48C654.595 355.48 653.621 355.86 652.768 356.62C651.928 357.367 651.508 358.467 651.508 359.92C651.508 361.333 651.915 362.44 652.728 363.24C653.541 364.027 654.555 364.42 655.768 364.42C656.808 364.42 657.621 364.173 658.208 363.68C658.795 363.173 659.148 362.647 659.268 362.1H655.008V359.42H662.228V367ZM674.89 367H665.89V352.82H674.87V355.8H669.05V358.5H674.33V361.28H669.05V364H674.89V367ZM687.13 367L683.31 361.42L681.71 363.2V367H678.55V352.82H681.71V358.78L686.89 352.82H691.05L685.53 358.96L691.07 367H687.13ZM697.008 367H693.808V352.82H697.008V367ZM713.397 367H710.057L704.217 357.68V367H701.077V352.82H704.917L710.237 361.44V352.82H713.397V367ZM730.548 367H727.988L727.788 365.56C727.442 366.053 726.928 366.467 726.248 366.8C725.568 367.133 724.755 367.3 723.808 367.3C721.782 367.3 720.075 366.62 718.688 365.26C717.315 363.887 716.628 362.107 716.628 359.92C716.628 357.747 717.342 355.973 718.768 354.6C720.208 353.213 721.955 352.52 724.008 352.52C725.848 352.52 727.308 352.953 728.388 353.82C729.468 354.687 730.195 355.713 730.568 356.9L727.528 357.96C727.382 357.36 727.015 356.8 726.428 356.28C725.855 355.747 725.048 355.48 724.008 355.48C722.915 355.48 721.942 355.86 721.088 356.62C720.248 357.367 719.828 358.467 719.828 359.92C719.828 361.333 720.235 362.44 721.048 363.24C721.862 364.027 722.875 364.42 724.088 364.42C725.128 364.42 725.942 364.173 726.528 363.68C727.115 363.173 727.468 362.647 727.588 362.1H723.328V359.42H730.548V367ZM753.632 361.92L755.932 352.82H759.172L755.312 367H752.052L749.032 357.6L745.992 367H742.672L738.812 352.82H742.172L744.512 361.9L747.452 352.82H750.692L753.632 361.92ZM765.113 367H761.913V352.82H765.113V367ZM777.763 367L773.943 361.42L772.343 363.2V367H769.183V352.82H772.343V358.78L777.523 352.82H781.683L776.163 358.96L781.703 367H777.763ZM787.64 367H784.44V352.82H787.64V367Z" fill="#4DFDAE"/>
<path d="M228.646 248.125H240.146C243.896 248.125 246.938 247.125 249.271 245.125C251.604 243.042 252.771 240.292 252.771 236.875C252.771 233.375 251.604 230.625 249.271 228.625C247.021 226.542 243.979 225.5 240.146 225.5H228.646V248.125ZM242.146 265.125H228.521V297H208.771V208.375H242.146C251.146 208.375 258.438 211.042 264.021 216.375C269.688 221.708 272.521 228.5 272.521 236.75C272.521 245.167 269.688 252 264.021 257.25C258.438 262.5 251.146 265.125 242.146 265.125ZM277.716 279.875C277.716 274.625 279.425 270.417 282.841 267.25C286.258 264 290.675 261.958 296.091 261.125L310.716 258.875C313.716 258.458 315.216 257.042 315.216 254.625C315.216 252.708 314.383 251.125 312.716 249.875C311.133 248.542 308.925 247.875 306.091 247.875C302.925 247.875 300.383 248.792 298.466 250.625C296.633 252.375 295.633 254.5 295.466 257L278.966 253.625C279.383 248.458 281.925 243.75 286.591 239.5C291.341 235.167 297.883 233 306.216 233C315.633 233 322.55 235.25 326.966 239.75C331.466 244.25 333.716 250 333.716 257V287.375C333.716 291.292 333.966 294.5 334.466 297H317.341C316.925 295.333 316.716 293 316.716 290C313.133 295.833 307.3 298.75 299.216 298.75C292.633 298.75 287.383 296.917 283.466 293.25C279.633 289.5 277.716 285.042 277.716 279.875ZM303.841 285C307.091 285 309.8 284.042 311.966 282.125C314.133 280.208 315.216 277.042 315.216 272.625V269.875L303.466 271.75C298.8 272.5 296.466 274.792 296.466 278.625C296.466 280.375 297.05 281.875 298.216 283.125C299.466 284.375 301.341 285 303.841 285ZM343.712 300.5L360.462 295.75C361.129 298.833 362.629 301.333 364.962 303.25C367.379 305.167 370.337 306.125 373.837 306.125C384.087 306.125 389.212 300.833 389.212 290.25V287.375C386.129 292.042 380.587 294.375 372.587 294.375C364.337 294.375 357.462 291.5 351.962 285.75C346.462 280 343.712 272.792 343.712 264.125C343.712 255.792 346.421 248.667 351.837 242.75C357.337 236.75 364.254 233.75 372.587 233.75C377.171 233.75 380.921 234.542 383.837 236.125C386.754 237.708 388.754 239.5 389.837 241.5V234.875H407.962V289.25C407.962 298.917 405.171 306.875 399.587 313.125C394.004 319.458 385.712 322.625 374.712 322.625C366.212 322.625 359.129 320.417 353.462 316C347.879 311.667 344.629 306.5 343.712 300.5ZM366.462 274.125C368.962 276.625 372.171 277.875 376.087 277.875C380.004 277.875 383.171 276.625 385.587 274.125C388.087 271.625 389.337 268.292 389.337 264.125C389.337 260.042 388.046 256.75 385.462 254.25C382.879 251.667 379.754 250.375 376.087 250.375C372.421 250.375 369.254 251.667 366.587 254.25C364.004 256.75 362.712 260.042 362.712 264.125C362.712 268.292 363.962 271.625 366.462 274.125ZM437.14 258.5H462.015C461.848 255.667 460.723 253.208 458.64 251.125C456.64 249.042 453.598 248 449.515 248C445.848 248 442.932 249.083 440.765 251.25C438.598 253.417 437.39 255.833 437.14 258.5ZM463.39 274.625L479.265 279.125C477.682 284.875 474.39 289.625 469.39 293.375C464.39 297.042 458.14 298.875 450.64 298.875C441.64 298.875 433.973 295.875 427.64 289.875C421.39 283.875 418.265 275.833 418.265 265.75C418.265 256.083 421.307 248.208 427.39 242.125C433.557 236.042 440.848 233 449.265 233C458.932 233 466.515 235.833 472.015 241.5C477.598 247.083 480.39 254.875 480.39 264.875C480.39 268.042 480.265 270 480.015 270.75H436.765C436.932 274.167 438.39 277.042 441.14 279.375C443.89 281.625 447.14 282.75 450.89 282.75C457.307 282.75 461.473 280.042 463.39 274.625ZM553.839 234.875L529.589 261L554.339 297H531.089L516.464 275.125L510.339 281.75V297H491.339V206.5H510.339V255.75L529.214 234.875H553.839ZM581.111 297H562.111V234.875H581.111V297ZM563.736 223.75C561.569 221.583 560.486 218.958 560.486 215.875C560.486 212.792 561.569 210.167 563.736 208C565.903 205.833 568.486 204.75 571.486 204.75C574.569 204.75 577.194 205.833 579.361 208C581.611 210.167 582.736 212.792 582.736 215.875C582.736 218.958 581.611 221.583 579.361 223.75C577.194 225.917 574.569 227 571.486 227C568.486 227 565.903 225.917 563.736 223.75ZM615.505 261.375V297H596.505V234.875H614.88V242C616.464 239.25 618.88 237.125 622.13 235.625C625.464 234.042 628.839 233.25 632.255 233.25C639.672 233.25 645.297 235.583 649.13 240.25C652.964 244.833 654.88 250.75 654.88 258V297H635.88V261.25C635.88 258 635.005 255.417 633.255 253.5C631.589 251.5 629.089 250.5 625.755 250.5C622.672 250.5 620.172 251.542 618.255 253.625C616.422 255.625 615.505 258.208 615.505 261.375ZM665.221 300.5L681.971 295.75C682.638 298.833 684.138 301.333 686.471 303.25C688.888 305.167 691.846 306.125 695.346 306.125C705.596 306.125 710.721 300.833 710.721 290.25V287.375C707.638 292.042 702.096 294.375 694.096 294.375C685.846 294.375 678.971 291.5 673.471 285.75C667.971 280 665.221 272.792 665.221 264.125C665.221 255.792 667.93 248.667 673.346 242.75C678.846 236.75 685.763 233.75 694.096 233.75C698.68 233.75 702.43 234.542 705.346 236.125C708.263 237.708 710.263 239.5 711.346 241.5V234.875H729.471V289.25C729.471 298.917 726.68 306.875 721.096 313.125C715.513 319.458 707.221 322.625 696.221 322.625C687.721 322.625 680.638 320.417 674.971 316C669.388 311.667 666.138 306.5 665.221 300.5ZM687.971 274.125C690.471 276.625 693.68 277.875 697.596 277.875C701.513 277.875 704.68 276.625 707.096 274.125C709.596 271.625 710.846 268.292 710.846 264.125C710.846 260.042 709.555 256.75 706.971 254.25C704.388 251.667 701.263 250.375 697.596 250.375C693.93 250.375 690.763 251.667 688.096 254.25C685.513 256.75 684.221 260.042 684.221 264.125C684.221 268.292 685.471 271.625 687.971 274.125ZM859.411 265.25L873.786 208.375H894.036L869.911 297H849.536L830.661 238.25L811.661 297H790.911L766.786 208.375H787.786L802.411 265.125L820.786 208.375H841.036L859.411 265.25ZM921.418 297H902.418V234.875H921.418V297ZM904.043 223.75C901.877 221.583 900.793 218.958 900.793 215.875C900.793 212.792 901.877 210.167 904.043 208C906.21 205.833 908.793 204.75 911.793 204.75C914.877 204.75 917.502 205.833 919.668 208C921.918 210.167 923.043 212.792 923.043 215.875C923.043 218.958 921.918 221.583 919.668 223.75C917.502 225.917 914.877 227 911.793 227C908.793 227 906.21 225.917 904.043 223.75ZM999.313 234.875L975.063 261L999.813 297H976.563L961.938 275.125L955.813 281.75V297H936.813V206.5H955.813V255.75L974.688 234.875H999.313ZM1026.58 297H1007.58V234.875H1026.58V297ZM1009.21 223.75C1007.04 221.583 1005.96 218.958 1005.96 215.875C1005.96 212.792 1007.04 210.167 1009.21 208C1011.38 205.833 1013.96 204.75 1016.96 204.75C1020.04 204.75 1022.67 205.833 1024.83 208C1027.08 210.167 1028.21 212.792 1028.21 215.875C1028.21 218.958 1027.08 221.583 1024.83 223.75C1022.67 225.917 1020.04 227 1016.96 227C1013.96 227 1011.38 225.917 1009.21 223.75Z" fill="white"/>
<path d="M43 550L1210 19V550H43Z" fill="white" fill-opacity="0.05"/>
<line x1="618" y1="422" x2="618" y2="501" stroke="white" stroke-opacity="0.4" stroke-width="2"/>
</g>
<defs>
<filter id="filter0_d_842_1123" x="30" y="19" width="1175" height="539" filterUnits="userSpaceOnUse" color-interpolation-filters="sRGB">
<feFlood flood-opacity="0" result="BackgroundImageFix"/>
<feColorMatrix in="SourceAlpha" type="matrix" values="0 0 0 0 0 0 0 0 0 0 0 0 0 0 0 0 0 0 127 0" result="hardAlpha"/>
<feOffset dy="4"/>
<feGaussianBlur stdDeviation="2"/>
<feComposite in2="hardAlpha" operator="out"/>
<feColorMatrix type="matrix" values="0 0 0 0 0 0 0 0 0 0 0 0 0 0 0 0 0 0 0.1 0"/>
<feBlend mode="normal" in2="BackgroundImageFix" result="effect1_dropShadow_842_1123"/>
<feBlend mode="normal" in="SourceGraphic" in2="effect1_dropShadow_842_1123" result="shape"/>
</filter>
<clipPath id="clip0_842_1123">
<rect width="1234" height="570" fill="white"/>
</clipPath>
</defs>
</svg>
