<svg width="1175" height="539" viewBox="0 0 1175 539" fill="none" xmlns="http://www.w3.org/2000/svg">
<g filter="url(#filter0_d_1_14)">
<rect x="4" width="1167" height="531" rx="20" fill="black"/>
</g>
<path d="M430.87 342.92L433.17 333.82H436.41L432.55 348H429.29L426.27 338.6L423.23 348H419.91L416.05 333.82H419.41L421.75 342.9L424.69 333.82H427.93L430.87 342.92ZM448.151 348H439.151V333.82H448.131V336.8H442.311V339.5H447.591V342.28H442.311V345H448.151V348ZM461.091 348H451.811V333.82H454.971V344.98H461.091V348ZM472.72 348L468.9 342.42L467.3 344.2V348H464.14V333.82H467.3V339.78L472.48 333.82H476.64L471.12 339.96L476.66 348H472.72ZM482.062 337.72C481.248 338.453 480.842 339.513 480.842 340.9C480.842 342.287 481.248 343.347 482.062 344.08C482.888 344.813 483.848 345.18 484.942 345.18C486.035 345.18 486.988 344.813 487.802 344.08C488.615 343.347 489.022 342.287 489.022 340.9C489.022 339.513 488.615 338.453 487.802 337.72C486.988 336.973 486.035 336.6 484.942 336.6C483.848 336.6 482.888 336.973 482.062 337.72ZM477.562 340.92C477.562 338.72 478.275 336.94 479.702 335.58C481.142 334.207 482.888 333.52 484.942 333.52C486.995 333.52 488.735 334.207 490.162 335.58C491.588 336.953 492.302 338.733 492.302 340.92C492.302 343.107 491.588 344.887 490.162 346.26C488.735 347.62 486.995 348.3 484.942 348.3C482.888 348.3 481.142 347.62 479.702 346.26C478.275 344.887 477.562 343.107 477.562 340.92ZM511.614 348H508.514V338.6L504.814 348H502.254L498.554 338.72V348H495.554V333.82H499.674L503.574 343.4L507.274 333.82H511.614V348ZM525.296 337.72C524.483 338.453 524.076 339.513 524.076 340.9C524.076 342.287 524.483 343.347 525.296 344.08C526.123 344.813 527.083 345.18 528.176 345.18C529.27 345.18 530.223 344.813 531.036 344.08C531.85 343.347 532.256 342.287 532.256 340.9C532.256 339.513 531.85 338.453 531.036 337.72C530.223 336.973 529.27 336.6 528.176 336.6C527.083 336.6 526.123 336.973 525.296 337.72ZM520.796 340.92C520.796 338.72 521.51 336.94 522.936 335.58C524.376 334.207 526.123 333.52 528.176 333.52C530.23 333.52 531.97 334.207 533.396 335.58C534.823 336.953 535.536 338.733 535.536 340.92C535.536 343.107 534.823 344.887 533.396 346.26C531.97 347.62 530.23 348.3 528.176 348.3C526.123 348.3 524.376 347.62 522.936 346.26C521.51 344.887 520.796 343.107 520.796 340.92ZM541.968 340.18H543.808C544.408 340.18 544.895 340.02 545.268 339.7C545.641 339.367 545.828 338.927 545.828 338.38C545.828 337.82 545.641 337.38 545.268 337.06C544.908 336.727 544.421 336.56 543.808 336.56H541.968V340.18ZM544.128 342.9H541.948V348H538.788V333.82H544.128C545.568 333.82 546.735 334.247 547.628 335.1C548.535 335.953 548.988 337.04 548.988 338.36C548.988 339.707 548.535 340.8 547.628 341.64C546.735 342.48 545.568 342.9 544.128 342.9ZM561.136 345.02H562.976C564.136 345.02 565.082 344.673 565.816 343.98C566.562 343.287 566.936 342.267 566.936 340.92C566.936 339.56 566.562 338.533 565.816 337.84C565.082 337.147 564.136 336.8 562.976 336.8H561.136V345.02ZM563.096 348H557.976V333.82H563.116C565.262 333.82 566.982 334.46 568.276 335.74C569.582 337.02 570.236 338.747 570.236 340.92C570.236 343.093 569.582 344.82 568.276 346.1C566.982 347.367 565.256 348 563.096 348ZM582.487 348H573.487V333.82H582.467V336.8H576.647V339.5H581.927V342.28H576.647V345H582.487V348ZM595.249 340.18H597.089C597.689 340.18 598.176 340.02 598.549 339.7C598.923 339.367 599.109 338.927 599.109 338.38C599.109 337.82 598.923 337.38 598.549 337.06C598.189 336.727 597.703 336.56 597.089 336.56H595.249V340.18ZM597.409 342.9H595.229V348H592.069V333.82H597.409C598.849 333.82 600.016 334.247 600.909 335.1C601.816 335.953 602.269 337.04 602.269 338.36C602.269 339.707 601.816 340.8 600.909 341.64C600.016 342.48 598.849 342.9 597.409 342.9ZM613.722 348L612.702 345.12H607.222L606.202 348H602.882L608.222 333.82H611.882L617.162 348H613.722ZM610.002 337.34L608.262 342.24H611.702L610.002 337.34ZM632.228 348H629.668L629.468 346.56C629.121 347.053 628.608 347.467 627.928 347.8C627.248 348.133 626.435 348.3 625.488 348.3C623.461 348.3 621.755 347.62 620.368 346.26C618.995 344.887 618.308 343.107 618.308 340.92C618.308 338.747 619.021 336.973 620.448 335.6C621.888 334.213 623.635 333.52 625.688 333.52C627.528 333.52 628.988 333.953 630.068 334.82C631.148 335.687 631.875 336.713 632.248 337.9L629.208 338.96C629.061 338.36 628.695 337.8 628.108 337.28C627.535 336.747 626.728 336.48 625.688 336.48C624.595 336.48 623.621 336.86 622.768 337.62C621.928 338.367 621.508 339.467 621.508 340.92C621.508 342.333 621.915 343.44 622.728 344.24C623.541 345.027 624.555 345.42 625.768 345.42C626.808 345.42 627.621 345.173 628.208 344.68C628.795 344.173 629.148 343.647 629.268 343.1H625.008V340.42H632.228V348ZM644.89 348H635.89V333.82H644.87V336.8H639.05V339.5H644.33V342.28H639.05V345H644.89V348ZM657.13 348L653.31 342.42L651.71 344.2V348H648.55V333.82H651.71V339.78L656.89 333.82H661.05L655.53 339.96L661.07 348H657.13ZM667.008 348H663.808V333.82H667.008V348ZM683.397 348H680.057L674.217 338.68V348H671.077V333.82H674.917L680.237 342.44V333.82H683.397V348ZM700.548 348H697.988L697.788 346.56C697.442 347.053 696.928 347.467 696.248 347.8C695.568 348.133 694.755 348.3 693.808 348.3C691.782 348.3 690.075 347.62 688.688 346.26C687.315 344.887 686.628 343.107 686.628 340.92C686.628 338.747 687.342 336.973 688.768 335.6C690.208 334.213 691.955 333.52 694.008 333.52C695.848 333.52 697.308 333.953 698.388 334.82C699.468 335.687 700.195 336.713 700.568 337.9L697.528 338.96C697.382 338.36 697.015 337.8 696.428 337.28C695.855 336.747 695.048 336.48 694.008 336.48C692.915 336.48 691.942 336.86 691.088 337.62C690.248 338.367 689.828 339.467 689.828 340.92C689.828 342.333 690.235 343.44 691.048 344.24C691.862 345.027 692.875 345.42 694.088 345.42C695.128 345.42 695.942 345.173 696.528 344.68C697.115 344.173 697.468 343.647 697.588 343.1H693.328V340.42H700.548V348ZM723.632 342.92L725.932 333.82H729.172L725.312 348H722.052L719.032 338.6L715.992 348H712.672L708.812 333.82H712.172L714.512 342.9L717.452 333.82H720.692L723.632 342.92ZM735.113 348H731.913V333.82H735.113V348ZM747.763 348L743.943 342.42L742.343 344.2V348H739.183V333.82H742.343V339.78L747.523 333.82H751.683L746.163 339.96L751.703 348H747.763ZM757.64 348H754.44V333.82H757.64V348Z" fill="#4DFDAE"/>
<path d="M198.646 229.125V206.5H210.146C217.646 206.5 222.771 210.75 222.771 217.875C222.771 224.75 217.646 229.125 210.146 229.125H198.646ZM212.146 246.125C230.146 246.125 242.521 234.5 242.521 217.75C242.521 201.25 230.146 189.375 212.146 189.375H178.771V278H198.521V246.125H212.146ZM247.716 260.875C247.716 270.75 255.591 279.75 269.216 279.75C277.466 279.75 283.466 276.25 286.716 271C286.716 275.25 287.216 277.5 287.341 278H304.466C304.341 277.375 303.716 273.25 303.716 268.375V238C303.716 225.25 296.341 214 276.216 214C257.966 214 249.716 225.75 248.966 234.625L265.466 238C265.841 233.375 269.466 228.875 276.091 228.875C282.091 228.875 285.216 232 285.216 235.625C285.216 237.75 284.091 239.375 280.716 239.875L266.091 242.125C255.841 243.625 247.716 249.875 247.716 260.875ZM273.841 266C268.591 266 266.466 262.875 266.466 259.625C266.466 255.25 269.466 253.375 273.466 252.75L285.216 250.875V253.625C285.216 263.25 279.466 266 273.841 266ZM313.712 281.5C315.462 292.625 326.837 303.625 344.712 303.625C367.962 303.625 377.962 288.125 377.962 270.25V215.875H359.837V222.5C358.087 219.25 352.712 214.75 342.587 214.75C325.587 214.75 313.712 228.75 313.712 245.125C313.712 262.375 326.087 275.375 342.587 275.375C351.587 275.375 356.962 271.75 359.212 268.375V271.25C359.212 282.5 353.337 287.125 343.837 287.125C336.712 287.125 331.712 282.75 330.462 276.75L313.712 281.5ZM346.087 258.875C338.462 258.875 332.712 253.625 332.712 245.125C332.712 236.625 338.962 231.375 346.087 231.375C353.212 231.375 359.337 236.625 359.337 245.125C359.337 253.625 353.837 258.875 346.087 258.875ZM407.14 239.5C407.515 234.875 411.515 229 419.515 229C428.515 229 431.765 234.75 432.015 239.5H407.14ZM433.39 255.625C431.64 260.5 427.765 263.75 420.89 263.75C413.515 263.75 407.14 258.75 406.765 251.75H450.015C450.14 251.375 450.39 248.5 450.39 245.875C450.39 225.875 438.515 214 419.265 214C403.14 214 388.265 226.75 388.265 246.75C388.265 267.625 403.515 279.875 420.64 279.875C436.39 279.875 446.265 270.875 449.265 260.125L433.39 255.625ZM523.839 215.875H499.214L480.339 236.75V187.5H461.339V278H480.339V262.75L486.464 256.125L501.089 278H524.339L499.589 242L523.839 215.875ZM551.111 278V215.875H532.111V278H551.111ZM530.486 196.875C530.486 203 535.486 208 541.486 208C547.736 208 552.736 203 552.736 196.875C552.736 190.75 547.736 185.75 541.486 185.75C535.486 185.75 530.486 190.75 530.486 196.875ZM585.505 242.375C585.505 236.125 589.505 231.5 595.755 231.5C602.63 231.5 605.88 236.125 605.88 242.25V278H624.88V239C624.88 225.375 617.88 214.25 602.255 214.25C595.88 214.25 588.255 217.125 584.88 223V215.875H566.505V278H585.505V242.375ZM635.221 281.5C636.971 292.625 648.346 303.625 666.221 303.625C689.471 303.625 699.471 288.125 699.471 270.25V215.875H681.346V222.5C679.596 219.25 674.221 214.75 664.096 214.75C647.096 214.75 635.221 228.75 635.221 245.125C635.221 262.375 647.596 275.375 664.096 275.375C673.096 275.375 678.471 271.75 680.721 268.375V271.25C680.721 282.5 674.846 287.125 665.346 287.125C658.221 287.125 653.221 282.75 651.971 276.75L635.221 281.5ZM667.596 258.875C659.971 258.875 654.221 253.625 654.221 245.125C654.221 236.625 660.471 231.375 667.596 231.375C674.721 231.375 680.846 236.625 680.846 245.125C680.846 253.625 675.346 258.875 667.596 258.875ZM829.411 246.25L811.036 189.375H790.786L772.411 246.125L757.786 189.375H736.786L760.911 278H781.661L800.661 219.25L819.536 278H839.911L864.036 189.375H843.786L829.411 246.25ZM891.418 278V215.875H872.418V278H891.418ZM870.793 196.875C870.793 203 875.793 208 881.793 208C888.043 208 893.043 203 893.043 196.875C893.043 190.75 888.043 185.75 881.793 185.75C875.793 185.75 870.793 190.75 870.793 196.875ZM969.313 215.875H944.688L925.813 236.75V187.5H906.813V278H925.813V262.75L931.938 256.125L946.563 278H969.813L945.063 242L969.313 215.875ZM996.584 278V215.875H977.584V278H996.584ZM975.959 196.875C975.959 203 980.959 208 986.959 208C993.209 208 998.209 203 998.209 196.875C998.209 190.75 993.209 185.75 986.959 185.75C980.959 185.75 975.959 190.75 975.959 196.875Z" fill="white"/>
<path d="M24 531L1171 20V511C1171 522.046 1162.05 531 1151 531H24Z" fill="white" fill-opacity="0.05"/>
<line x1="588" y1="403" x2="588" y2="482" stroke="#E5E5E5" stroke-width="2"/>
<defs>
<filter id="filter0_d_1_14" x="0" y="0" width="1175" height="539" filterUnits="userSpaceOnUse" color-interpolation-filters="sRGB">
<feFlood flood-opacity="0" result="BackgroundImageFix"/>
<feColorMatrix in="SourceAlpha" type="matrix" values="0 0 0 0 0 0 0 0 0 0 0 0 0 0 0 0 0 0 127 0" result="hardAlpha"/>
<feOffset dy="4"/>
<feGaussianBlur stdDeviation="2"/>
<feComposite in2="hardAlpha" operator="out"/>
<feColorMatrix type="matrix" values="0 0 0 0 0 0 0 0 0 0 0 0 0 0 0 0 0 0 0.1 0"/>
<feBlend mode="normal" in2="BackgroundImageFix" result="effect1_dropShadow_1_14"/>
<feBlend mode="normal" in="SourceGraphic" in2="effect1_dropShadow_1_14" result="shape"/>
</filter>
</defs>
</svg>
